<svg width="141" height="17" fill="none" xmlns="http://www.w3.org/2000/svg"><path d="M6.06 13.56l.26-.02H3.7c.053.013.133.02.24.02h.5c.24.013.427.02.56.02.133 0 .32-.007.56-.02h.5zm4.26-1.8c.093.04.167.033.22-.02.027-.04.013-.06-.04-.06h-.1a.344.344 0 00-.14.02c-.013.013.007.033.06.06zm8.14-7.36c.187 0 .347-.04.48-.12.133-.08.233-.12.3-.12.093 0 .353.133.78.4.427.253.713.453.86.6l.28.32-.32.12c-.24.08-.367.12-.38.12l-.8.38c-.387.2-.713.3-.98.3-.133 0-.247-.007-.34-.02a2.033 2.033 0 00-.32-.02.682.682 0 00-.42.12c-.16.16-1.627.973-4.4 2.44-2.92 1.587-4.38 2.387-4.38 2.4 0 .053.427.08 1.28.08 1.24 0 2.76-.04 4.56-.12 1.813-.08 2.82-.16 3.02-.24.16-.053.26-.08.3-.08.12 0 .327.12.62.36.32.253.507.38.56.38l.04-.02c.04 0 .08-.007.12-.02h.16c.2 0 .32.113.36.34v.12c0 .187-.14.447-.42.78-.28.347-.52.52-.72.52a.548.548 0 01-.12-.02h-.42c-1.12 0-3.767.1-7.94.3-4.16.2-6.3.333-6.42.4a.36.36 0 01-.22.06c-.147 0-.42-.067-.82-.2-.52-.173-.78-.293-.78-.36 0-.08-.067-.12-.2-.12-.173 0-.487-.113-.94-.34-.453-.227-.68-.38-.68-.46 0-.16.153-.24.46-.24.147 0 .273.027.38.08.053.04.133.06.24.06.187 0 .593-.12 1.22-.36l1.2-.46.62.34c.347.173.587.26.72.26.027 0 .04-.007.04-.02 0-.053-.147-.167-.44-.34-.36-.213-.54-.373-.54-.48 0-.053.047-.12.14-.2.08-.053 2.067-1.02 5.96-2.9 3.947-1.88 6.247-3.013 6.9-3.4.733-.413 1.2-.62 1.4-.62zm9.24 2.5c.32-.2.534-.3.64-.3.107 0 .16.127.16.38 0 .08-.013.307-.04.68-.013.173-.02.393-.02.66 0 .373.047.56.14.56.054 0 .12-.04.2-.12.094-.093.087-.173-.02-.24-.026-.013-.04-.04-.04-.08 0-.107.38-.46 1.14-1.06.267-.213.467-.34.6-.38.147-.04.427-.06.84-.06.574 0 .847.033.82.1-.026.067-1.02 1.287-2.98 3.66l-2.96 3.54-.92.46a5.68 5.68 0 00-.9.52c-.213.173-.466.44-.76.8-.453.547-.74.82-.86.82-.053 0-.073-.047-.06-.14 0-.08.94-1.267 2.82-3.56 1.907-2.333 2.874-3.527 2.9-3.58.054-.107.014-.153-.12-.14l-.06.02h-.08c-.173 0-.366-.127-.58-.38-.173-.187-.286-.347-.34-.48-.04-.133-.06-.353-.06-.66 0-.347.02-.56.06-.64.054-.093.214-.22.48-.38zm12.398 2.02c0-.053-.233-.08-.7-.08-.32 0-.533.027-.64.08-.107.04-.247.16-.42.36-.16.2-.293.32-.4.36-.107.04-.353.067-.74.08-.467 0-.7.027-.7.08 0 .093.14.14.42.14.267 0 .453.02.56.06.067.027.1.067.1.12 0 .093-.08.187-.24.28-.147.093-.32.147-.52.16h-.04l-.24.04c.014 0 .074.007.18.02.227.027.34.067.34.12 0 .027-.113.193-.34.5l-.34.46.62-.44c.427-.307.74-.48.94-.52.213-.053.32-.133.32-.24 0-.12.107-.24.32-.36.227-.133.447-.2.66-.2.254 0 .38-.06.38-.18 0-.04-.053-.06-.16-.06-.08-.027 0-.147.24-.36.267-.24.4-.38.4-.42zm-2.28 0c-.013-.027-.066-.047-.16-.06-.133.013-.18.033-.14.06a.572.572 0 00.3 0zm5.24-7.48c.32-.347.534-.52.64-.52.04 0 .06.027.06.08 0 .027-.166.287-.5.78-.32.453-.48.907-.48 1.36 0 .32-.066.587-.2.8-.12.2-.54.767-1.26 1.7-.973 1.24-1.46 1.873-1.46 1.9 0 .053.447.08 1.34.08h1.34l.24.52.28.5-.3.2c-.04.027-.16.113-.36.26-.2.147-.48.353-.84.62s-.68.5-.96.7c-3.253 2.4-4.9 3.6-4.94 3.6-.107 0-.473-.2-1.1-.6-.613-.387-.92-.613-.92-.68 0-.12 1.2-1.647 3.6-4.58 1.52-1.867 2.527-3.08 3.02-3.64.493-.56.84-.88 1.04-.96.32-.133.613-.433.88-.9.24-.413.534-.82.88-1.22zm8.262 10.04c.093.053.167.047.22-.02.04-.04.027-.06-.04-.06h-.1a.344.344 0 00-.14.02c-.013.013.007.033.06.06zm-.88.16c.36 0 .54-.04.54-.12 0-.08-.18-.12-.54-.12-.373 0-.56.04-.56.12 0 .08.187.12.56.12zm-1.1-.14c-.053-.08-.187-.107-.4-.08-1.013.067-1.567.147-1.66.24-.027.027-.04.047-.04.06 0 .04.18.06.54.06h.52c.707-.04 1.06-.12 1.06-.24 0-.013-.007-.02-.02-.02v-.02zm2.12-2.9c.093 0 .14-.04.14-.12 0-.08-.02-.12-.06-.12-.04 0-.08.047-.12.14-.027.067-.013.1.04.1zm-2.92 0c.093 0 .14-.04.14-.12 0-.08-.047-.12-.14-.12-.08 0-.12.04-.12.12 0 .08.04.12.12.12zm2.62-.38c.04 0 .06-.02.06-.06 0-.04-.02-.06-.06-.06-.04 0-.06.02-.06.06 0 .04.02.06.06.06zm-.36 0c.147-.053.147-.08 0-.08h-.18c-.253 0-.5.027-.74.08-.173.053-.2.087-.08.1h.28c.32 0 .56-.033.72-.1zm4.52 3.9c-.04 0-1.473.307-4.3.92-2.813.613-4.227.92-4.24.92-.053 0-.32-.213-.8-.64-.48-.427-.72-.667-.72-.72 0-.08.367-.647 1.1-1.7l1.12-1.58h.78c.16-.013.293-.02.4-.02.093 0 .24.007.44.02h.96c.333 0 .5-.027.5-.08 0-.027-.02-.06-.06-.1-.107-.107-.393-.16-.86-.16h-.86c-.613 0-.92-.02-.92-.06 0-.107.413-.74 1.24-1.9l1.32-1.86 2.5.08c2.013.053 3.467.1 4.36.14l1.86.08c-.253.347-.513.74-.78 1.18h-1.84c-.84 0-1.373.013-1.6.04-.213.027-.367.093-.46.2a.848.848 0 01-.42.22c-.16.027-.513.04-1.06.04h-1.26l-.18.36-.2.36h3.56c.64 0 1.067.013 1.28.04.213.027.32.087.32.18 0 .04-.107.24-.32.6-.16.267-.38.433-.66.5-.267.053-1.353.2-3.26.44-1.2.147-1.887.273-2.06.38-.093.053-.22.233-.38.54-.2.36-.3.587-.3.68 0 .027.033.04.1.04.173 0 1.373-.18 3.6-.54 1.64-.267 2.533-.4 2.68-.4.093 0 .147.013.16.04.027.027.04.067.04.12 0 .107-.12.407-.36.9-.227.493-.367.74-.42.74zm12.911-2.28c.08 0 .12-.04.12-.12 0-.08-.013-.12-.04-.12-.053 0-.1.047-.14.14 0 .053.02.087.06.1zm.3-3.76c-.2-.067-.886-.1-2.06-.1h-.6c-.706 0-1.14.04-1.3.12-.16.08-.246.287-.26.62v.12c0 .12.02.2.06.24a.85.85 0 00.26.08h.04c.307 0 1.027-.153 2.16-.46 1.147-.32 1.72-.52 1.72-.6 0-.013-.006-.02-.02-.02zm-5.14-.94l.24-.54.88.08c3.667.293 6.007.44 7.02.44.214 0 .447.187.7.56.24.36.36.56.36.6l-2.66.92c-1.773.587-2.66.907-2.66.96 0 .04.707.333 2.12.88l2.14.84-1.44 1.44-.9-.26c-.706-.213-1.06-.36-1.06-.44 0-.027.074-.04.22-.04.88-.053 1.32-.12 1.32-.2 0-.027-.28-.04-.84-.04-.613 0-.96.04-1.04.12-.106.107-.18.107-.22 0-.04-.08-.14-.12-.3-.12-.133 0-.513-.12-1.14-.36-.613-.24-1.18-.487-1.7-.74-.453-.24-.726-.36-.82-.36-.026 0-.206.313-.54.94-.32.613-.646 1.233-.98 1.86l-.48.94h-.02c-.066 0-.24-.173-.52-.52-.28-.333-.42-.56-.42-.68 0-.213.174-.7.52-1.46.96-2.013 1.7-3.62 2.22-4.82zm27.85-3.54c.813-.32 1.24-.48 1.28-.48.066 0 .173.207.32.62.146.413.22.727.22.94v.16c0 .333.186.993.56 1.98.373.973.633 1.473.78 1.5.16.027.293.08.4.16.093.093.14.247.14.46 0 .2-.04.36-.12.48a.19.19 0 01-.16.08c-.12 0-.247-.067-.38-.2-.134-.147-.22-.3-.26-.46-.067-.267-.234-.54-.5-.82-.267-.293-.534-.493-.8-.6-.267-.093-.394-.173-.38-.24l.06-.06c.106-.067.093-.133-.04-.2-.12-.053-.3-.293-.54-.72-.227-.427-.34-.713-.34-.86 0-.013.006-.033.02-.06l.02-.06c0-.027-.02-.04-.06-.04-.147 0-.607.2-1.38.6-.827.413-1.267.62-1.32.62-.08 0-.2.08-.36.24-.16.16-.407.24-.74.24-.32 0-.48.073-.48.22 0 .12-.227.307-.68.56-.387.187-.58.327-.58.42 0 .013 1.006.44 3.02 1.28l2.9 1.16 1.14-.06c.4-.027.633-.04.7-.04.266 0 .4.027.4.08 0 .12.046.66.14 1.62.053.747.08 1.147.08 1.2 0 .28-.04.52-.12.72l-.16.42c-.96.12-2.414.307-4.36.56-1.934.253-3.38.44-4.34.56l-.56-.32a1.627 1.627 0 01-.5-.42c-.107-.133-.227-.36-.36-.68-.187-.48-.42-.86-.7-1.14-.227-.227-.34-.413-.34-.56 0-.08.006-.14.02-.18.026-.12.06-.2.1-.24.04-.04.146-.06.32-.06.213 0 .686.04 1.42.12.88.08 1.32.18 1.32.3 0 .053-.12.147-.36.28-.214.107-.294.227-.24.36.053.147.1.32.14.52.04.24-.04.393-.24.46l-.28.1.38.24c.186.12.366.18.54.18.173 0 .66-.06 1.46-.18 1.093-.147 1.693-.253 1.8-.32.146-.093.46-.16.94-.2.36-.04.593-.093.7-.16.106-.053.246-.213.42-.48.226-.373.34-.62.34-.74 0-.133-.114-.313-.34-.54a1.162 1.162 0 00-.82-.34h-.1c-1.427 0-3.287-.487-5.58-1.46-.507-.213-.774-.36-.8-.44a.178.178 0 01-.02-.08c0-.067.006-.127.02-.18.04-.24.013-.36-.08-.36-.147 0-.187-.073-.12-.22a.456.456 0 01.22-.2c.146-.04.22-.1.22-.18 0-.093-.134-.24-.4-.44-.254-.213-.38-.34-.38-.38 0-.107.346-.38 1.04-.82.706-.453 1.46-.88 2.26-1.28 1.133-.573 2.626-1.22 4.48-1.94zm7.634 6.44c0-.04-.106-.06-.32-.06-.16.013-.24.053-.24.12.04.053.14.073.3.06.174-.027.26-.067.26-.12zm4.8-5.46c.107-.267.234-.4.38-.4.067 0 .1.053.1.16 0 .16-.22 1.14-.66 2.94l-.64 2.72.24.26c.12.12.18.26.18.42 0 .227-.126.44-.38.64-.16.133-.406.847-.74 2.14-.053.2-.106.407-.16.62l-.14.56c-.04.173-.08.327-.12.46a2.59 2.59 0 01-.08.32.918.918 0 00-.04.14c-.026.04-.066.06-.12.06-.12 0-.273-.06-.46-.18a1.069 1.069 0 01-.36-.38.65.65 0 01-.08-.28c0-.173.134-.873.4-2.1.214-.973.32-1.513.32-1.62 0-.067-.366-.1-1.1-.1h-1.08l-.22.7c-.426 1.56-.666 2.433-.72 2.62-.066.147-.24.3-.52.46-.333.16-.546.42-.64.78-.053.2-.146.4-.28.6-.12.213-.213.32-.28.32-.026 0-.04-.027-.04-.08 0-.133.227-1.28.68-3.44.467-2.173.72-3.273.76-3.3.054-.053.08-.133.08-.24 0-.133.14-.22.42-.26l.44-.08-.4-.02a2.13 2.13 0 00-.22-.02.315.315 0 01-.12-.08.327.327 0 01-.04-.18c0-.12.054-.413.16-.88.12-.48.18-.927.18-1.34.027-.48.08-.847.16-1.1.067-.213.134-.353.2-.42.08-.067.227-.12.44-.16.214-.027.467-.08.76-.16.04-.013.08-.02.12-.02.107 0 .16.187.16.56 0 .44-.14 1.3-.42 2.58-.293 1.347-.44 2.047-.44 2.1 0 .04.294.06.88.06h.36l1.24-.04.56-2.16c.36-1.4.634-2.207.82-2.42.2-.227.354-.48.46-.76zm5.7 11.14c.12 0 .12-.067 0-.2-.027-.04-.053-.06-.08-.06-.027 0-.04.04-.04.12 0 .093.04.14.12.14zm1.64-8.44c.053-.053.213-.08.48-.08.64 0 1.06.087 1.26.26.187.147.693.227 1.52.24l1.3.04a23.943 23.943 0 00-1.14 1.66c-.187-.013-.473-.04-.86-.08a23.07 23.07 0 00-.86-.08l-.46 2.42c-.24 1.32-.42 2.22-.54 2.7l-.06.3c.2-.027.507-.053.92-.08.427-.027.747-.053.96-.08l-.08.42c-.027.133-.04.213-.04.24 0 .107.113.187.34.24.24.053.36.18.36.38s-.027.313-.08.34c-.067.04-1.267.087-3.6.14l-3.5.08v-.74c.187 0 .46-.013.82-.04.373-.027.647-.04.82-.04l-.88-.02-.88-.04.04-.46c.013-.24.04-.387.08-.44.053-.04.227-.08.52-.12.08-.013.2-.02.36-.02.28 0 .5.027.66.08.16.053.473.08.94.08.507 0 .793-.033.86-.1.04-.04.193-.887.46-2.54s.4-2.573.4-2.76c0-.027-.307-.093-.92-.2-.413-.067-.68-.127-.8-.18-.12-.067-.247-.207-.38-.42l-.3-.46-1.14.08c-.173.013-.393.02-.66.02-.387 0-.68-.04-.88-.12l-.4-.16.8-.1c.72-.067 1.593-.12 2.62-.16 1.227-.053 1.873-.12 1.94-.2zm12.527 3.64c0-.053-.233-.08-.7-.08-.32 0-.533.027-.64.08-.107.04-.247.16-.42.36-.16.2-.293.32-.4.36-.107.04-.353.067-.74.08-.467 0-.7.027-.7.08 0 .093.14.14.42.14.267 0 .453.02.56.06.067.027.1.067.1.12 0 .093-.08.187-.24.28-.147.093-.32.147-.52.16h-.04l-.24.04c.013 0 .073.007.18.02.227.027.34.067.34.12 0 .027-.113.193-.34.5l-.34.46.62-.44c.427-.307.74-.48.94-.52.213-.053.32-.133.32-.24 0-.12.107-.24.32-.36.227-.133.447-.2.66-.2.253 0 .38-.06.38-.18 0-.04-.053-.06-.16-.06-.08-.027 0-.147.24-.36.267-.24.4-.38.4-.42zm-2.28 0c-.013-.027-.067-.047-.16-.06-.133.013-.18.033-.14.06a.572.572 0 00.3 0zm5.24-7.48c.32-.347.533-.52.64-.52.04 0 .06.027.06.08 0 .027-.167.287-.5.78-.32.453-.48.907-.48 1.36 0 .32-.067.587-.2.8-.12.2-.54.767-1.26 1.7-.973 1.24-1.46 1.873-1.46 1.9 0 .053.447.08 1.34.08h1.34l.24.52.28.5-.3.2c-.04.027-.16.113-.36.26-.2.147-.48.353-.84.62s-.68.5-.96.7c-3.253 2.4-4.9 3.6-4.94 3.6-.107 0-.473-.2-1.1-.6-.613-.387-.92-.613-.92-.68 0-.12 1.2-1.647 3.6-4.58 1.52-1.867 2.527-3.08 3.02-3.64.493-.56.84-.88 1.04-.96.32-.133.613-.433.88-.9.24-.413.533-.82.88-1.22zm8.422 7.28c0-.067-.054-.113-.16-.14a.46.46 0 00-.3-.02c-.187.067-.22.14-.1.22.053.04.133.06.24.06.213 0 .32-.04.32-.12zm-1.96-.2c0-.027-.04-.04-.12-.04-.08 0-.12.04-.12.12 0 .107.06.107.18 0 .04-.027.06-.053.06-.08zm5.58-1.14l.12-.64c0-.027-.047-.04-.14-.04-.16 0-.354.033-.58.1-.227.053-.354.107-.38.16-.067.12-.52.18-1.36.18h-1.28l-.18.36-.2.36h.66c.346 0 .986.027 1.92.08l1.28.08.14-.64zm-5.62-1.06l.72-1.02 2.5.06c1.746.053 2.92.1 3.52.14l1 .08-.06.34c-.067.307-.12.633-.16.98-.054.453-.167.753-.34.9-.187.147-.494.867-.92 2.16l-.62 1.92-.56.08c-.387.053-.58.053-.58 0 0-.067.08-.487.24-1.26.173-.787.26-1.227.26-1.32 0-.027-.054-.04-.16-.04-.254 0-.667.033-1.24.1-.894.107-1.74.18-2.54.22-.574.027-.934.06-1.08.1a.423.423 0 00-.32.24.497.497 0 01-.26.26c-.094.027-.3.04-.62.04-.507 0-.807.033-.9.1-.054.04-.08.073-.08.1 0 .08.2.12.6.12.226 0 .413-.007.56-.02.573-.067.873-.173.9-.32.053-.147.153-.227.3-.24.066.027.106.06.12.1 0 .04-.267.56-.8 1.56l-.8 1.48-.68.26c-.334.12-.554.18-.66.18a.323.323 0 01-.2-.06 7.158 7.158 0 00-.16-.14 9.346 9.346 0 01-.32-.24 5.625 5.625 0 01-.3-.24l-.58-.48.62-.9c.413-.6.68-.9.8-.9.066 0 .1-.053.1-.16 0-.147.273-.627.82-1.44l.88-1.26.6-.06c.386-.053.606-.127.66-.22.026-.067-.027-.1-.16-.1l-.28.02c-.334.053-.5.053-.5 0 0-.08.226-.453.68-1.12z" fill="#00FF76"/></svg>