<svg width="173" height="17" fill="none" xmlns="http://www.w3.org/2000/svg"><path d="M0 13.743L2.505 17h8.649l2.008-3.257.733-1.166H6.428c-.804 0-1.217-.012-1.265-.012.213-.335.414-.67.615-1.016a877.679 877.679 0 003.296-5.474L8.023 4.446H18.94L21.693.023H8.235C6.817 2.38 5.4 4.747 3.982 7.103 2.647 9.332 1.323 11.549 0 13.743zM32.161.023l-3.639 6.052-4.253.011.012-.011-1.064-1.629h2.032L27.908.023h-4.466l-5.73 9.528h8.719l-1.808 3.026h-8.731l-.697 1.166 2.492 3.245V17h8.744v-.012c1.099-1.824 2.174-3.626 3.25-5.404 1.086-1.802 2.185-3.638 3.32-5.51l-1.064-1.628h2.032L36.627.023h-4.466zm19.543 0h-13.34s-.295.497-.886 1.478c-.59.994-1.311 2.195-2.162 3.604-.85 1.42-1.69 2.818-2.517 4.192-.827 1.386-1.512 2.518-2.032 3.384-.319.543-.532.889-.638 1.062L32.634 17h8.684l2.753-4.423.355-.59-1.513-2.806 4.82-2.54 3.97-6.618zM35.292 12.577l2.352-3.892 2.375 3.892h-4.727zm2.623-4.354c.426-.705.851-1.42 1.288-2.148v-.012l-1.051-1.617h6.935l-7.172 3.777zm28.428-8.2H53.724l-7.786 12.554-.733 1.166L47.7 17h8.117l.023-.046 1.985-3.21.733-1.167h-7.019l-1.287-1.987h5.163l2.836-4.515h-3.817l-1.122-1.629H63.6L66.344.023z" fill="#00FF76"/><path d="M81.609 0H63.956l2.41 2.876-2.516 4.192c-1.382 2.31-2.718 4.527-3.994 6.652l.237.3 2.268 2.957 4.23-6.906 4.856 6.906h4.774l-5.022-6.964 1.442-.762h-.012l4.832-2.576 1.395-2.252L81.609 0zM67.596 8.396l1.417-2.356-1.075-1.617h7.03l-7.373 3.973zM93.388.023l-5.021 7.819 1.737 2.737h5.317l-1.3 1.998h-8.79L87.078 17h9.062l6.534-10.868h-8.046l-1.406-1.686h10.456l2.659-4.423h-12.95zm28.381 0h-4.478l-3.628 6.052h-4.749l-1.052-1.629h2.032l2.659-4.423h-4.478a4350.862 4350.862 0 01-3.876 6.456c-1.465 2.437-2.918 4.862-4.36 7.264L102.344 17c.957-1.594 1.903-3.164 2.836-4.712.343-.566.685-1.132 1.028-1.71h4.75l-1.903 3.165L111.56 17c1.099-1.825 2.186-3.638 3.261-5.416 1.087-1.802 2.186-3.638 3.309-5.51l-1.052-1.628h2.032l2.659-4.423zM117.775 17c1.099-1.825 2.186-3.638 3.261-5.416 1.087-1.802 2.186-3.638 3.308-5.51l-1.051-1.628h2.032l2.659-4.423h-4.478c-1.324 2.194-2.635 4.389-3.959 6.583a1614.131 1614.131 0 01-4.277 7.137L117.775 17zM143.06.023h-13.34s-.295.497-.886 1.478c-.59.994-1.311 2.195-2.162 3.604-.851 1.42-1.689 2.818-2.517 4.192-.827 1.386-1.512 2.518-2.032 3.384-.319.543-.531.889-.638 1.062L123.99 17h8.684l2.753-4.423.355-.59-1.513-2.806 4.821-2.54 3.97-6.618zm-16.412 12.554L129 8.685l2.375 3.892h-4.727zm2.623-4.354c.426-.705.851-1.42 1.288-2.148v-.012l-1.051-1.617h6.935l-7.172 3.777zm15.762-8.2l-8.46 13.709-.011.011L139.066 17c1.111-1.848 2.21-3.673 3.297-5.474.189-.312.378-.635.567-.947h4.738l-1.891 3.164L148.271 17c1.11-1.836 2.209-3.673 3.32-5.509 1.087-1.801 2.174-3.615 3.261-5.416l-1.028-1.629h2.008l2.647-4.423h-13.446zm4.75 7.022h-4.738l.035-.07c.201-.334.402-.658.591-.981.319-.508.626-1.028.934-1.548h4.738l-1.56 2.599zM160.05.023l-5.021 7.819 1.737 2.737h5.317l-1.3 1.998h-8.791L153.741 17h9.062l6.534-10.868h-8.046l-1.406-1.686h10.457L173 .023h-12.95z" fill="#00FF76"/></svg>