<svg version="1.0" xmlns="http://www.w3.org/2000/svg" width="1893.333" height="1893.333" viewBox="0 0 1420 1420"><path d="M940 9.5c-8.3 2.4-20.4 8.1-29.5 14-26.4 17-60.2 53-84.9 90.5-7.6 11.5-16.6 26.7-16.6 28 0 .5-.3 1-.8 1.2-.8.3-10.8 20.5-13.8 28-1.8 4.4-2.1 4.8-4.9 4.3-1.6-.2-5.7-.7-9-1-3.3-.4-7.3-.8-9-1-3.9-.5-12.1-1.3-21.5-2-4.1-.3-9.7-.8-12.5-1-29-2.4-100.5-2.4-123 0-2.2.2-7.6.7-12 .9-8.6.6-16.3 1.3-23.5 2.2-2.5.3-5.8.7-7.5.9-4 .5-11.1 1.4-16.6 2.2-9.1 1.3-8.8 1.4-12-6.2-6.6-15.4-22.6-44.4-25-45.3-.5-.2-.9-.8-.9-1.3s-1.6-3.2-3.5-5.9-3.5-5.4-3.5-5.9-.3-1.1-.7-1.3c-.5-.2-3-3.7-5.8-7.8-2.7-4.1-5.3-7.6-5.7-7.8-.5-.2-.8-.8-.8-1.2 0-1.9-25.1-36-34.6-47.1-3.6-4.2-18.1-18.7-21.5-21.4-30.1-24.9-58.3-20.6-86.4 13-19.4 23.1-44.6 66.9-60.5 105-2.3 5.5-4.7 11.3-5.4 13-.8 1.6-3.2 8.2-5.4 14.5-11.4 32.1-17 54.2-22.8 89-1.3 8-1.9 19.8-1.9 37.2.1 18-.1 19.6-1.6 18.7-1.8-.9-3.2.8-15.4 20.6-7.3 11.9-19.5 35.4-19.5 37.7 0 .8-.4 1.8-.9 2.3-3.2 3.4-15.6 49.8-19.6 73.5-.3 1.9-1.6 9.8-3 17.5-1.3 7.7-2.7 16-3 18.5-.8 5.9-1.4 9.9-2 13-.3 1.4-.7 4.5-1 7-.3 2.5-1 7.2-1.5 10.5s-1.2 8.2-1.5 11c-.4 2.7-.8 5.7-1 6.5-.2.8-.7 4.2-1.1 7.5-.3 3.3-.8 6.9-1 8-.2 1.1-.7 4-1 6.5-.3 2.5-.7 5.6-.9 7-.2 1.4-.7 4.7-1 7.5-.4 2.7-.9 6.3-1.2 8-.2 1.6-.7 4.2-.9 5.7-.2 1.6-.6 4-.9 5.5-.2 1.6-1.1 6.4-2 10.8-.9 4.4-1.9 9.3-2.1 11-2.3 13.8-14.1 56.9-27.4 100.5-15.4 50.4-23.6 82.7-25.6 101.5-.3 2.7-.7 6.1-1 7.5-2.6 15-2.5 86.4.1 104.5.2 1.6.7 5.5 1 8.5.9 9.3 2.4 21.4 3 24 .2 1.4.7 4.3 1 6.5.3 2.2.7 4.9.9 6 .2 1.1.7 4 1.1 6.5 1 6.4 1.3 7.9 1.9 9.8.3.9.8 3.3 1.1 5.2 1.3 7.3 6.8 29.1 11 43.5 7.3 24.8 14.3 43.7 25.2 68.5 3.7 8.3 16.4 33.2 21.3 41.5 2.9 4.9 6.1 10.5 7.1 12.3 2.4 4.2 19.2 29.3 21.2 31.8.9 1.1 5.1 6.5 9.4 12 21.2 27.5 49.4 56.3 75.3 76.9 4.1 3.3 8.6 7 10 8.2 1.4 1.3 2.8 2.3 3.2 2.3.3 0 1.3.6 2 1.2 4.9 4.7 31.3 22.3 48.5 32.4 21.6 12.7 47.9 25.9 67.3 33.9 3.6 1.4 7.9 3.2 9.5 4 3.5 1.6 14.7 5.8 30 11.3 10 3.6 34 11.2 45.5 14.3 2.5.7 5 1.4 5.5 1.5 2.9.9 25.7 6.6 30 7.5 2.8.6 6.6 1.5 8.5 1.9 12.7 2.9 45.3 8.9 56.5 10.5 1.7.2 7.7 1.1 13.5 1.9 11.2 1.6 16 2.2 25.5 3.1 3.3.3 7.1.8 8.5 1 3.2.5 14 1.6 20.5 2 2.7.2 8.4.6 12.5.9 11.7 1 19.4 1.5 34.5 2.3 18.1 1 157.2 1 169 0 5-.4 11.5-1 14.5-1.2 10.8-.9 20.7-2 27.5-3 1.7-.2 5.3-.7 8.1-1 2.8-.3 5.9-.7 7-.9 1-.2 3.9-.7 6.4-1.1 9.3-1.4 10.6-1.6 14.5-2.5 2.2-.5 5.6-1.2 7.5-1.5 1.9-.3 5.5-1.1 8-1.6 2.5-.6 5.6-1.3 7-1.5 2-.4 13.9-3.5 18.5-4.8.6-.1 3-.8 5.5-1.5 9-2.4 28.8-9.5 40-14.3 44.5-19.1 80-46.4 108.1-83.3 24.1-31.7 44.1-72.5 61.3-125 6.8-21 20-67.9 23.1-82.5.2-.8 1.7-7.2 3.4-14.2 1.7-6.9 3.2-13.7 3.5-15 .2-1.3 1.1-5.2 2-8.8.8-3.6 1.7-7.6 2-9 .3-1.4 1.2-5.9 2.2-10 2.1-9.7 2.1-10.4.7-10.6-.7-.1-1.7-.2-2.3-.3-.5 0 .2-3.1 1.7-6.8 5.9-15.6 14.9-46.6 16.8-58.2.3-1.9.8-3.8 1.1-4.2.3-.5.7-2.5 1-4.6.2-2.1 1.1-7.6 2-12.3.9-4.7 1.7-10.1 1.9-12 .2-1.9.7-7.6 1.1-12.5 1.6-17.2.9-53.5-1.1-65.5-.2-1.4-.7-4.5-1-7-1.5-10.4-6-28.5-10.3-41-4.8-13.8-14.6-32.9-24-46.5-4.1-6.1-7.8-11.2-8.1-11.5-2.7-2.2-28-35.7-32.8-43.5-16.5-26.9-25.7-46.4-30.2-64-3-11.7-3.4-22.4-1.2-28 2.4-6 2.1-50.8-.4-60.5-.2-.8-.7-3.8-1-6.5-1.1-8.5-6.5-32.4-10.5-46.5-12.6-43.6-33.2-87.4-60.3-128-8.7-13-19.4-27.6-27.1-37-2.1-2.5-4.4-5.4-5.3-6.5-1.7-2.1-11.6-13.4-16.8-19.3-2.9-3.3-3-3.6-2.6-11.6.9-17.2.2-46.8-1.3-59.1-.2-1.7-.7-6-1.1-9.7-.3-3.7-.7-7.5-.9-8.5-.2-1-.7-4.3-1-7.3-.4-3-.8-6.6-1.1-8-.8-4.7-2.5-14.5-3-17-.3-1.4-.8-4.1-1.1-6-.3-1.9-2.1-10-4-18-17.5-75.4-44.4-128.2-73.9-144.9-11-6.3-24-7.6-37.5-3.6zm278.4 709.4c-.5.5-5.4-5.1-5.4-6.1 0-.3-.3-1.5-.7-2.5-.3-1 1 .4 2.9 3.2 2 2.7 3.4 5.2 3.2 5.4zM1216 1104c-.6 1.1-1.3 2-1.6 2-.2 0 0-.9.6-2s1.3-2 1.6-2c.2 0 0 .9-.6 2zm-719 156.6c0 .2-.9 0-2-.6s-2-1.3-2-1.6c0-.2.9 0 2 .6s2 1.3 2 1.6zm3.5 1.4c.3.6-.1.7-.9.4-1.8-.7-2.1-1.4-.7-1.4.6 0 1.3.4 1.6 1zm4.5 2c.8.5 1.1 1 .5 1-.5 0-1.7-.5-2.5-1s-1-1-.5-1c.6 0 1.7.5 2.5 1zm60.8 22c6.2 1.8 11 3.5 10.8 3.7-.5.5-24.8-6.6-25.6-7.4-.6-.7.3-.5 14.8 3.7zm14.9 4.6c-.3.3-1.2.4-1.9.1-.8-.3-.5-.6.6-.6 1.1-.1 1.7.2 1.3.5zm5.3 1.4c1.8 1.2.2 1.2-2.5 0-1.3-.6-1.5-.9-.5-.9.8 0 2.2.4 3 .9z"/></svg>